<svg width="238" height="58" viewBox="0 0 238 58" fill="none" xmlns="http://www.w3.org/2000/svg">
<path fill-rule="evenodd" clip-rule="evenodd" d="M238 24C238 15.5992 238 11.3988 236.365 8.19014C234.927 5.36771 232.632 3.073 229.81 1.6349C226.601 0 222.401 0 214 0H28C19.5992 0 15.3988 0 12.1901 1.6349C9.36771 3.073 7.073 5.36771 5.6349 8.19014C4 11.3988 4 15.5992 4 24V34C4 42.4008 4 46.6012 5.6349 49.8099C7.073 52.6323 9.36771 54.927 12.1901 56.3651C15.3988 58 19.5992 58 28 58H214C222.401 58 226.601 58 229.81 56.3651C232.632 54.927 234.927 52.6323 236.365 49.8099C238 46.6012 238 42.4008 238 34V24Z" fill="white"/>
<path fill-rule="evenodd" clip-rule="evenodd" d="M4.97146 44H20C20 51.732 13.732 58 6 58H0V57.6709C1.43115 56.4697 2.61579 54.9871 3.47376 53.3032C4.5962 51.1003 4.89299 48.3966 4.97146 44Z" fill="white"/>
</svg>
