<svg width="31" height="31" viewBox="0 0 31 31" fill="none" xmlns="http://www.w3.org/2000/svg">
<path fill-rule="evenodd" clip-rule="evenodd" d="M14.5772 18.8197C14.9677 18.4292 15.6009 18.4292 15.9914 18.8197L27.3051 30.1334C27.6956 30.5239 28.3288 30.5239 28.7193 30.1334L30.1335 28.7192C30.524 28.3287 30.524 27.6955 30.1335 27.305L18.8198 15.9913C18.4293 15.6008 18.4293 14.9676 18.8198 14.5771L30.1335 3.26336C30.524 2.87284 30.524 2.23967 30.1335 1.84915L28.7193 0.434938C28.3288 0.0444136 27.6956 0.0444136 27.3051 0.434938L15.9914 11.7486C15.6009 12.1392 14.9677 12.1392 14.5772 11.7486L3.26346 0.434938C2.87293 0.0444133 2.23977 0.0444136 1.84924 0.434938L0.435029 1.84915C0.0445047 2.23967 0.0445047 2.87284 0.435029 3.26336L11.7487 14.5771C12.1393 14.9676 12.1393 15.6008 11.7487 15.9913L0.435029 27.305C0.0445044 27.6955 0.0445047 28.3287 0.435029 28.7192L1.84924 30.1334C2.23977 30.5239 2.87293 30.5239 3.26346 30.1334L14.5772 18.8197Z" fill="white"/>
</svg>
