<svg width="109" height="17" viewBox="0 0 109 17" fill="none" xmlns="http://www.w3.org/2000/svg">
<path d="M11.2212 3.02H3.58723L3.60923 16H0.793235V0.599999H11.2432L11.2212 3.02ZM24.8628 0.599999V16H22.0468V3.02H15.9748L15.8428 6.87C15.7694 9.026 15.5934 10.7787 15.3148 12.128C15.0361 13.4627 14.5888 14.482 13.9728 15.186C13.3568 15.8753 12.5061 16.22 11.4208 16.22C11.0394 16.22 10.5188 16.1467 9.85878 16L10.0568 13.514C10.2474 13.5727 10.4674 13.602 10.7168 13.602C11.6114 13.602 12.2421 13.074 12.6088 12.018C12.9901 10.9473 13.2248 9.268 13.3128 6.98L13.5328 0.599999H24.8628ZM39.4031 12.436H31.7031L30.1851 16H27.2371L34.1671 0.599999H36.9831L43.9351 16H40.9431L39.4031 12.436ZM38.4571 10.192L35.5531 3.46L32.6711 10.192H38.4571ZM56.4386 7.992C57.4213 8.256 58.1693 8.71067 58.6826 9.356C59.196 9.98667 59.4526 10.7787 59.4526 11.732C59.4526 13.0813 58.954 14.13 57.9566 14.878C56.9593 15.626 55.5146 16 53.6226 16H46.3186V0.599999H53.2046C54.9353 0.599999 56.2846 0.944666 57.2526 1.634C58.2206 2.32333 58.7046 3.29867 58.7046 4.56C58.7046 5.36667 58.5066 6.06333 58.1106 6.65C57.7293 7.23667 57.172 7.684 56.4386 7.992ZM49.1346 7.178H52.9626C53.8866 7.178 54.5906 6.99467 55.0746 6.628C55.5586 6.26133 55.8006 5.71867 55.8006 5C55.8006 4.28133 55.5586 3.73867 55.0746 3.372C54.5906 2.99067 53.8866 2.8 52.9626 2.8H49.1346V7.178ZM53.5346 13.8C55.5586 13.8 56.5706 13.0373 56.5706 11.512C56.5706 10.016 55.5586 9.268 53.5346 9.268H49.1346V13.8H53.5346ZM76.3947 0.599999V16H73.5347V9.4H65.5707V16H62.7107V0.599999H65.5707V6.958H73.5347V0.599999H76.3947ZM90.9226 12.436H83.2226L81.7046 16H78.7566L85.6866 0.599999H88.5026L95.4546 16H92.4626L90.9226 12.436ZM89.9766 10.192L87.0726 3.46L84.1906 10.192H89.9766ZM108.813 0.599999V16H105.997V11.71H102.191H101.883L99.0227 16H96.0087L99.3087 11.248C98.2381 10.852 97.4094 10.2287 96.8227 9.378C96.2507 8.51267 95.9647 7.47133 95.9647 6.254C95.9647 5.08067 96.2287 4.06867 96.7567 3.218C97.2847 2.36733 98.0327 1.722 99.0007 1.282C99.9687 0.827332 101.105 0.599999 102.411 0.599999H108.813ZM102.499 3.02C101.325 3.02 100.423 3.29133 99.7927 3.834C99.1767 4.37667 98.8687 5.16867 98.8687 6.21C98.8687 7.222 99.1694 8.00667 99.7707 8.564C100.372 9.10667 101.245 9.378 102.389 9.378H105.997V3.02H102.499Z" fill="#02BC08"/>
</svg>
