<svg width="1678" height="382" viewBox="0 0 1678 382" fill="none" xmlns="http://www.w3.org/2000/svg">
<path d="M27 374.5L630.5 164.5L1040.5 331.5L1647 53.5" stroke="#202020"/>
<circle cx="26.5" cy="374.5" r="7.5" fill="#02BC08"/>
<circle cx="632.5" cy="165.5" r="7.5" fill="#02BC08"/>
<circle cx="1038.5" cy="329.5" r="7.5" fill="#02BC08"/>
<circle cx="1646.5" cy="53.5" r="7.5" fill="#02BC08"/>
<path d="M10.6 321.056H14.184L3.62404 351.2H0.0400391L10.6 321.056Z" fill="#02BC08"/>
<path d="M23.002 348.32C21.21 348.32 19.61 347.872 18.202 346.976C16.794 346.058 15.6847 344.736 14.874 343.008C14.0634 341.258 13.658 339.189 13.658 336.8C13.658 334.41 14.0634 332.352 14.874 330.624C15.6847 328.874 16.794 327.552 18.202 326.656C19.61 325.738 21.21 325.28 23.002 325.28C24.794 325.28 26.394 325.738 27.802 326.656C29.2314 327.552 30.3514 328.874 31.162 330.624C31.9727 332.352 32.378 334.41 32.378 336.8C32.378 339.189 31.9727 341.258 31.162 343.008C30.3514 344.736 29.2314 346.058 27.802 346.976C26.394 347.872 24.794 348.32 23.002 348.32ZM23.002 344.704C24.602 344.704 25.8607 344.042 26.778 342.72C27.7167 341.397 28.186 339.424 28.186 336.8C28.186 334.176 27.7167 332.202 26.778 330.88C25.8607 329.557 24.602 328.896 23.002 328.896C21.4234 328.896 20.1647 329.557 19.226 330.88C18.3087 332.202 17.85 334.176 17.85 336.8C17.85 339.424 18.3087 341.397 19.226 342.72C20.1647 344.042 21.4234 344.704 23.002 344.704Z" fill="#02BC08"/>
<path d="M42.777 325.6V348H38.617V329.088H33.881V325.6H42.777Z" fill="#02BC08"/>
<path d="M49.7165 348.224C48.9912 348.224 48.3725 347.978 47.8605 347.488C47.3485 346.976 47.0925 346.336 47.0925 345.568C47.0925 344.778 47.3379 344.138 47.8285 343.648C48.3405 343.157 48.9699 342.912 49.7165 342.912C50.4632 342.912 51.0819 343.157 51.5725 343.648C52.0845 344.138 52.3405 344.778 52.3405 345.568C52.3405 346.336 52.0845 346.976 51.5725 347.488C51.0605 347.978 50.4419 348.224 49.7165 348.224Z" fill="#02BC08"/>
<path d="M613.6 112.056H617.184L606.624 142.2H603.04L613.6 112.056Z" fill="#02BC08"/>
<path d="M626.002 139.32C624.21 139.32 622.61 138.872 621.202 137.976C619.794 137.058 618.685 135.736 617.874 134.008C617.063 132.258 616.658 130.189 616.658 127.8C616.658 125.41 617.063 123.352 617.874 121.624C618.685 119.874 619.794 118.552 621.202 117.656C622.61 116.738 624.21 116.28 626.002 116.28C627.794 116.28 629.394 116.738 630.802 117.656C632.231 118.552 633.351 119.874 634.162 121.624C634.973 123.352 635.378 125.41 635.378 127.8C635.378 130.189 634.973 132.258 634.162 134.008C633.351 135.736 632.231 137.058 630.802 137.976C629.394 138.872 627.794 139.32 626.002 139.32ZM626.002 135.704C627.602 135.704 628.861 135.042 629.778 133.72C630.717 132.397 631.186 130.424 631.186 127.8C631.186 125.176 630.717 123.202 629.778 121.88C628.861 120.557 627.602 119.896 626.002 119.896C624.423 119.896 623.165 120.557 622.226 121.88C621.309 123.202 620.85 125.176 620.85 127.8C620.85 130.424 621.309 132.397 622.226 133.72C623.165 135.042 624.423 135.704 626.002 135.704Z" fill="#02BC08"/>
<path d="M654.257 135.48V139H637.745V136.216L646.641 127.768C647.644 126.808 648.316 125.976 648.657 125.272C649.02 124.546 649.201 123.832 649.201 123.128C649.201 122.082 648.849 121.282 648.145 120.728C647.441 120.173 646.406 119.896 645.041 119.896C642.758 119.896 641.009 120.674 639.793 122.232L636.881 119.992C637.756 118.818 638.929 117.912 640.401 117.272C641.894 116.61 643.558 116.28 645.393 116.28C647.825 116.28 649.766 116.856 651.217 118.008C652.668 119.16 653.393 120.728 653.393 122.712C653.393 123.928 653.137 125.069 652.625 126.136C652.113 127.202 651.132 128.418 649.681 129.784L643.697 135.48H654.257Z" fill="#02BC08"/>
<path d="M659.467 139.224C658.741 139.224 658.123 138.978 657.611 138.488C657.099 137.976 656.843 137.336 656.843 136.568C656.843 135.778 657.088 135.138 657.579 134.648C658.091 134.157 658.72 133.912 659.467 133.912C660.213 133.912 660.832 134.157 661.323 134.648C661.835 135.138 662.091 135.778 662.091 136.568C662.091 137.336 661.835 137.976 661.323 138.488C660.811 138.978 660.192 139.224 659.467 139.224Z" fill="#02BC08"/>
<path d="M1019.56 276H1023.14L1012.58 306.144H1009L1019.56 276Z" fill="#02BC08"/>
<path d="M1031.96 303.264C1030.17 303.264 1028.57 302.816 1027.16 301.92C1025.75 301.003 1024.64 299.68 1023.83 297.952C1023.02 296.203 1022.62 294.133 1022.62 291.744C1022.62 289.355 1023.02 287.296 1023.83 285.568C1024.64 283.819 1025.75 282.496 1027.16 281.6C1028.57 280.683 1030.17 280.224 1031.96 280.224C1033.75 280.224 1035.35 280.683 1036.76 281.6C1038.19 282.496 1039.31 283.819 1040.12 285.568C1040.93 287.296 1041.34 289.355 1041.34 291.744C1041.34 294.133 1040.93 296.203 1040.12 297.952C1039.31 299.68 1038.19 301.003 1036.76 301.92C1035.35 302.816 1033.75 303.264 1031.96 303.264ZM1031.96 299.648C1033.56 299.648 1034.82 298.987 1035.74 297.664C1036.68 296.341 1037.15 294.368 1037.15 291.744C1037.15 289.12 1036.68 287.147 1035.74 285.824C1034.82 284.501 1033.56 283.84 1031.96 283.84C1030.38 283.84 1029.12 284.501 1028.19 285.824C1027.27 287.147 1026.81 289.12 1026.81 291.744C1026.81 294.368 1027.27 296.341 1028.19 297.664C1029.12 298.987 1030.38 299.648 1031.96 299.648Z" fill="#02BC08"/>
<path d="M1053.37 289.792C1055.44 290.048 1057.02 290.752 1058.11 291.904C1059.2 293.056 1059.74 294.496 1059.74 296.224C1059.74 297.525 1059.41 298.709 1058.75 299.776C1058.09 300.843 1057.08 301.696 1055.74 302.336C1054.42 302.955 1052.8 303.264 1050.88 303.264C1049.28 303.264 1047.73 303.04 1046.24 302.592C1044.76 302.123 1043.51 301.483 1042.46 300.672L1044.25 297.44C1045.06 298.123 1046.04 298.667 1047.2 299.072C1048.37 299.456 1049.58 299.648 1050.81 299.648C1052.28 299.648 1053.44 299.349 1054.27 298.752C1055.12 298.133 1055.55 297.301 1055.55 296.256C1055.55 295.211 1055.14 294.4 1054.33 293.824C1053.54 293.227 1052.33 292.928 1050.68 292.928H1048.64V290.08L1053.72 284.032H1043.55V280.544H1058.81V283.328L1053.37 289.792Z" fill="#02BC08"/>
<path d="M1064.96 303.168C1064.23 303.168 1063.61 302.923 1063.1 302.432C1062.59 301.92 1062.33 301.28 1062.33 300.512C1062.33 299.723 1062.58 299.083 1063.07 298.592C1063.58 298.101 1064.21 297.856 1064.96 297.856C1065.7 297.856 1066.32 298.101 1066.81 298.592C1067.33 299.083 1067.58 299.723 1067.58 300.512C1067.58 301.28 1067.33 301.92 1066.81 302.432C1066.3 302.923 1065.68 303.168 1064.96 303.168Z" fill="#02BC08"/>
<path d="M1625.6 0.0556641H1629.18L1618.62 30.1997H1615.04L1625.6 0.0556641Z" fill="#02BC08"/>
<path d="M1638 27.3197C1636.21 27.3197 1634.61 26.8717 1633.2 25.9757C1631.79 25.0583 1630.68 23.7357 1629.87 22.0077C1629.06 20.2583 1628.66 18.189 1628.66 15.7997C1628.66 13.4103 1629.06 11.3517 1629.87 9.62366C1630.68 7.87433 1631.79 6.55167 1633.2 5.65566C1634.61 4.73833 1636.21 4.27966 1638 4.27966C1639.79 4.27966 1641.39 4.73833 1642.8 5.65566C1644.23 6.55167 1645.35 7.87433 1646.16 9.62366C1646.97 11.3517 1647.38 13.4103 1647.38 15.7997C1647.38 18.189 1646.97 20.2583 1646.16 22.0077C1645.35 23.7357 1644.23 25.0583 1642.8 25.9757C1641.39 26.8717 1639.79 27.3197 1638 27.3197ZM1638 23.7037C1639.6 23.7037 1640.86 23.0423 1641.78 21.7197C1642.72 20.397 1643.19 18.4237 1643.19 15.7997C1643.19 13.1757 1642.72 11.2023 1641.78 9.87967C1640.86 8.557 1639.6 7.89567 1638 7.89567C1636.42 7.89567 1635.16 8.557 1634.23 9.87967C1633.31 11.2023 1632.85 13.1757 1632.85 15.7997C1632.85 18.4237 1633.31 20.397 1634.23 21.7197C1635.16 23.0423 1636.42 23.7037 1638 23.7037Z" fill="#02BC08"/>
<path d="M1670.16 21.9117H1666.19V26.9997H1662.16V21.9117H1649.87V19.0317L1660.91 4.59966H1665.36L1654.96 18.3917H1662.29V13.8797H1666.19V18.3917H1670.16V21.9117Z" fill="#02BC08"/>
<path d="M1675.03 27.2237C1674.3 27.2237 1673.69 26.9783 1673.17 26.4877C1672.66 25.9757 1672.41 25.3357 1672.41 24.5677C1672.41 23.7783 1672.65 23.1383 1673.14 22.6477C1673.65 22.157 1674.28 21.9117 1675.03 21.9117C1675.78 21.9117 1676.39 22.157 1676.89 22.6477C1677.4 23.1383 1677.65 23.7783 1677.65 24.5677C1677.65 25.3357 1677.4 25.9757 1676.89 26.4877C1676.37 26.9783 1675.75 27.2237 1675.03 27.2237Z" fill="#02BC08"/>
</svg>
