<svg width="733" height="637" viewBox="0 0 733 637" fill="none" xmlns="http://www.w3.org/2000/svg">
<path fill-rule="evenodd" clip-rule="evenodd" d="M366.041 593.581C568.201 593.581 732.083 460.703 732.083 296.79C732.083 132.878 568.201 0 366.041 0C163.882 0 0 132.878 0 296.79C0 368.173 31.0806 433.669 82.868 484.869C75.2852 550.32 58.9939 605.747 46.1674 637C106.702 625.183 158.456 594.982 199.229 561.041C249.253 581.843 305.957 593.581 366.041 593.581Z" fill="white"/>
<rect x="136" y="158" width="258" height="60" rx="25" fill="#02BC08"/>
<rect x="404" y="268" width="258" height="60" rx="25" fill="#02BC08"/>
<rect x="136" y="378" width="258" height="60" rx="25" fill="#02BC08"/>
</svg>
