<svg width="60" height="60" viewBox="0 0 60 60" fill="none" xmlns="http://www.w3.org/2000/svg">
<circle cx="30" cy="30" r="30" fill="#E8E8E8"/>
<path fill-rule="evenodd" clip-rule="evenodd" d="M29.5772 33.8197C29.9677 33.4292 30.6009 33.4292 30.9914 33.8197L42.3051 45.1334C42.6956 45.5239 43.3288 45.5239 43.7193 45.1334L45.1335 43.7192C45.524 43.3287 45.524 42.6955 45.1335 42.305L33.8198 30.9913C33.4293 30.6008 33.4293 29.9676 33.8198 29.5771L45.1335 18.2634C45.524 17.8728 45.524 17.2397 45.1335 16.8492L43.7193 15.4349C43.3288 15.0444 42.6956 15.0444 42.3051 15.4349L30.9914 26.7486C30.6009 27.1392 29.9677 27.1392 29.5772 26.7486L18.2635 15.4349C17.8729 15.0444 17.2398 15.0444 16.8492 15.4349L15.435 16.8492C15.0445 17.2397 15.0445 17.8728 15.435 18.2634L26.7487 29.5771C27.1393 29.9676 27.1393 30.6008 26.7487 30.9913L15.435 42.305C15.0445 42.6955 15.0445 43.3287 15.435 43.7192L16.8492 45.1334C17.2398 45.5239 17.8729 45.5239 18.2635 45.1334L29.5772 33.8197Z" fill="#95A5A6"/>
</svg>
