<svg width="60" height="60" viewBox="0 0 60 60" fill="none" xmlns="http://www.w3.org/2000/svg">
<path fill-rule="evenodd" clip-rule="evenodd" d="M27 32C27.5523 32 28 32.4477 28 33V49C28 49.5523 28.4477 50 29 50H31C31.5523 50 32 49.5523 32 49V33C32 32.4477 32.4477 32 33 32H49C49.5523 32 50 31.5523 50 31V29C50 28.4477 49.5523 28 49 28H33C32.4477 28 32 27.5523 32 27V11C32 10.4477 31.5523 10 31 10H29C28.4477 10 28 10.4477 28 11V27C28 27.5523 27.5523 28 27 28H11C10.4477 28 10 28.4477 10 29V31C10 31.5523 10.4477 32 11 32H27Z" fill="#02BC08"/>
<circle cx="30" cy="30" r="29.5" stroke="#02BC08"/>
</svg>
