<svg width="38" height="28" viewBox="0 0 38 28" fill="none" xmlns="http://www.w3.org/2000/svg">
<path fill-rule="evenodd" clip-rule="evenodd" d="M11.5776 21.7485C11.9681 22.139 12.6013 22.139 12.9918 21.7485L34.3614 0.378923C34.7519 -0.0116007 35.3851 -0.0116014 35.7756 0.378923L37.1898 1.79314C37.5803 2.18366 37.5803 2.81683 37.1898 3.20735L12.9899 27.4072C12.5994 27.7978 11.9662 27.7978 11.5757 27.4072L9.45533 25.2869C9.4548 25.2863 9.4548 25.2855 9.45532 25.285C9.45585 25.2845 9.45585 25.2836 9.45532 25.2831L0.993667 16.8214C0.603143 16.4309 0.603143 15.7977 0.993667 15.4072L2.40788 13.993C2.7984 13.6025 3.43157 13.6025 3.82209 13.993L11.5776 21.7485Z" fill="white"/>
</svg>
